<?xml version="1.0" standalone="no"?>
<!DOCTYPE svg PUBLIC "-//W3C//DTD SVG 20010904//EN"
 "http://www.w3.org/TR/2001/REC-SVG-20010904/DTD/svg10.dtd">
<svg version="1.0" xmlns="http://www.w3.org/2000/svg"
 width="510.000000pt" height="292.000000pt" viewBox="0 0 510.000000 292.000000"
 preserveAspectRatio="xMidYMid meet">

<g transform="translate(0.000000,292.000000) scale(0.100000,-0.100000)"
fill="#000000" stroke="none">
<path d="M2542 2523 l-2 -283 -65 0 c-37 0 -65 -4 -65 -10 0 -5 12 -10 26 -10
16 0 38 -12 58 -32 44 -44 50 -84 50 -353 l1 -220 68 -3 67 -3 0 123 c0 143
16 344 30 399 12 44 61 89 96 89 13 0 24 5 24 10 0 6 -53 10 -140 10 l-140 0
-3 283 -2 282 -3 -282z"/>
<path d="M1395 2230 c3 -5 16 -10 28 -10 33 0 64 -26 89 -73 21 -39 23 -58 26
-290 l4 -248 66 3 65 3 4 205 c2 113 8 235 14 272 9 58 16 72 45 98 19 16 46
30 59 30 14 0 25 5 25 10 0 6 -79 10 -216 10 -141 0 -213 -3 -209 -10z"/>
<path d="M3383 2198 c65 -133 3 -330 -142 -455 -23 -19 -79 -58 -123 -84 l-81
-49 64 0 c50 0 75 6 114 26 193 103 297 221 329 375 13 63 13 82 2 130 -23 96
-26 99 -110 99 l-74 0 21 -42z"/>
<path d="M4300 1510 c0 -5 5 -10 10 -10 6 0 10 5 10 10 0 6 -4 10 -10 10 -5 0
-10 -4 -10 -10z"/>
<path d="M710 1389 c0 -57 4 -88 10 -84 6 3 10 44 10 91 0 49 -4 84 -10 84 -6
0 -10 -37 -10 -91z"/>
<path d="M870 1390 l0 -90 60 0 c33 0 60 4 60 10 0 6 -22 10 -50 10 -49 0 -50
1 -50 30 0 29 2 30 45 30 25 0 45 5 45 10 0 6 -20 10 -45 10 -43 0 -45 1 -45
30 0 29 1 30 50 30 28 0 50 5 50 10 0 6 -27 10 -60 10 l-60 0 0 -90z"/>
<path d="M1100 1474 c0 -3 11 -30 25 -60 14 -30 25 -58 25 -62 0 -4 9 -18 20
-32 l19 -25 41 89 c22 49 38 91 35 94 -8 8 -11 3 -47 -77 l-34 -75 -33 77
c-19 42 -38 77 -42 77 -5 0 -9 -3 -9 -6z"/>
<path d="M1396 1399 c-41 -92 -45 -116 -12 -76 20 25 29 28 67 25 34 -2 46 -8
54 -25 9 -22 25 -31 25 -15 0 19 -76 172 -86 172 -6 0 -28 -36 -48 -81z m70
16 c19 -46 19 -45 -21 -45 -19 0 -35 4 -35 8 0 12 30 72 36 72 3 0 12 -16 20
-35z"/>
<path d="M1800 1390 c0 -53 4 -90 10 -90 6 0 10 9 10 21 0 27 18 59 33 59 7
-1 26 -19 42 -40 29 -38 45 -49 45 -32 0 5 -16 28 -36 51 l-37 42 39 40 c21
21 34 39 28 39 -5 0 -30 -20 -54 -45 -24 -25 -48 -45 -52 -45 -4 0 -8 20 -8
45 0 25 -4 45 -10 45 -6 0 -10 -37 -10 -90z"/>
<path d="M2077 1400 c-41 -88 -47 -120 -16 -77 17 22 28 27 64 27 35 0 46 -5
61 -27 9 -15 19 -23 21 -17 5 16 -70 174 -83 174 -5 0 -27 -36 -47 -80z m77
-7 c7 -21 4 -23 -28 -23 -40 0 -43 7 -20 52 15 28 16 29 28 12 8 -11 16 -29
20 -41z"/>
<path d="M2330 1390 l0 -90 60 0 c33 0 60 4 60 10 0 6 -22 10 -50 10 l-50 0 0
80 c0 47 -4 80 -10 80 -6 0 -10 -37 -10 -90z"/>
<path d="M2560 1390 l0 -90 60 0 c33 0 60 4 60 10 0 6 -22 10 -50 10 -49 0
-50 1 -50 30 0 29 2 30 45 30 25 0 45 5 45 10 0 6 -20 10 -45 10 -43 0 -45 1
-45 30 0 29 1 30 50 30 28 0 50 5 50 10 0 6 -27 10 -60 10 l-60 0 0 -90z"/>
<path d="M2843 1468 c-75 -36 -37 -168 49 -168 48 0 68 16 68 55 0 44 -18 46
-22 3 -3 -35 -21 -44 -63 -34 -55 14 -74 77 -34 117 18 18 29 21 73 16 46 -6
49 -5 32 8 -23 17 -71 18 -103 3z"/>
<path d="M3097 1473 c-11 -10 -8 -161 3 -168 6 -4 10 27 10 84 0 91 -1 97 -13
84z"/>
<path d="M3250 1396 c0 -106 18 -125 22 -24 l3 73 55 -72 c30 -40 58 -72 63
-72 4 -1 7 40 7 91 0 102 -17 113 -22 15 l-3 -59 -53 66 c-29 36 -57 66 -62
66 -6 0 -10 -37 -10 -84z"/>
<path d="M3547 1473 c-11 -10 -8 -161 3 -168 6 -4 10 27 10 84 0 91 -1 97 -13
84z"/>
<path d="M3704 1467 c-3 -8 -4 -47 -2 -88 l3 -74 63 -3 c38 -2 62 1 62 8 0 6
-23 10 -55 10 -54 0 -55 0 -55 30 0 29 2 30 45 30 57 0 59 18 3 22 -39 3 -43
6 -46 31 -3 26 -2 27 47 27 28 0 51 5 51 10 0 16 -110 13 -116 -3z"/>
<path d="M3960 1389 c0 -57 4 -88 10 -84 6 3 10 33 10 66 0 32 3 59 8 58 4 0
29 -29 56 -64 27 -35 53 -62 58 -59 11 7 10 174 -2 174 -5 0 -10 -30 -12 -67
l-3 -68 -54 68 c-30 37 -58 67 -63 67 -4 0 -8 -41 -8 -91z"/>
<path d="M4250 1390 l0 -90 60 0 c74 0 80 18 8 22 -49 3 -53 5 -56 31 -3 26
-2 27 42 27 61 0 69 18 9 22 -44 3 -48 5 -51 31 -3 27 -2 27 52 27 31 0 56 5
56 10 0 6 -27 10 -60 10 l-60 0 0 -90z"/>
<path d="M1538 958 c-5 -193 -7 -217 -27 -255 -21 -42 -42 -59 -90 -74 -14 -4
71 -7 189 -8 192 0 211 1 177 13 -95 34 -103 64 -110 416 l-2 115 -66 3 -67 3
-4 -213z"/>
<path d="M2547 1163 c-4 -3 -7 -92 -7 -197 -1 -105 -5 -211 -9 -236 -10 -50
-45 -87 -95 -98 -26 -6 -20 -8 34 -12 l65 -5 0 -263 c0 -144 3 -262 8 -262 4
0 7 119 7 265 l0 265 143 0 c134 1 140 2 103 15 -22 7 -48 22 -58 32 -33 34
-57 201 -58 406 l0 97 -63 0 c-35 0 -67 -3 -70 -7z"/>
<path d="M3062 1138 c36 -49 54 -76 192 -285 69 -105 138 -201 152 -212 24
-19 40 -21 163 -20 127 0 133 1 94 13 -105 33 -191 122 -350 363 l-115 173
-80 0 -80 0 24 -32z"/>
</g>
</svg>
