<svg width="12" height="12" viewBox="0 0 12 12" fill="none" xmlns="http://www.w3.org/2000/svg">
<g clip-path="url(#clip0_1_137)">
<path d="M3.75101 0H5.04001V0.539H4.29001V1.078H5.04001V1.617H3.75101V0ZM5.29751 0H6.58701V0.469H5.83701V0.5625H6.58701V1.6405H5.29751V1.1485H6.04751V1.0545H5.29751V0ZM6.84501 0H8.13351V0.469H7.38351V0.5625H8.13351V1.6405H6.84501V1.1485H7.59501V1.0545H6.84501V0Z" fill="white"/>
<path fill-rule="evenodd" clip-rule="evenodd" d="M5.9955 12L2.5235 11.036L1.5 2.35851H10.5L9.477 11.035L5.9955 12ZM3.5235 6.28651L3.619 7.35051H7.3075L7.184 8.73051L5.997 9.05151H5.996L4.811 8.7315L4.735 7.88301H3.6665L3.8155 9.55401L5.9955 10.159L8.179 9.55401L8.445 6.57201L8.471 6.28651L8.663 4.13201H3.332L3.429 5.19651H7.497L7.4 6.28651H3.5235Z" fill="white"/>
</g>
<defs>
<clipPath id="clip0_1_137">
<rect width="12" height="12" rx="5" fill="white"/>
</clipPath>
</defs>
</svg>
