<svg width="12" height="12" viewBox="0 0 12 12" fill="none" xmlns="http://www.w3.org/2000/svg">
<g clip-path="url(#clip0_1_39)">
<mask id="mask0_1_39" style="mask-type:luminance" maskUnits="userSpaceOnUse" x="0" y="0" width="12" height="12">
<path d="M0 0H12V12H0V0Z" fill="white"/>
</mask>
<g mask="url(#mask0_1_39)">
<path fill-rule="evenodd" clip-rule="evenodd" d="M4.2075 0C2.984 0 2 1.0265 2 2.284C2 3.0485 2.364 3.7275 2.9235 4.142C2.63514 4.35804 2.40141 4.63864 2.24103 4.96129C2.08066 5.28395 1.99811 5.63969 2 6C2 6.765 2.364 7.4435 2.9235 7.858C2.63514 8.07404 2.40141 8.35464 2.24103 8.67729C2.08066 8.99995 1.99811 9.35569 2 9.716C2 10.9735 2.984 12 4.2075 12C5.4305 12 6.415 10.9735 6.415 9.716V7.785C6.80167 8.1074 7.28906 8.28413 7.7925 8.2845C9.016 8.284 10 7.2575 10 6C10.002 5.63967 9.91951 5.28389 9.75913 4.96121C9.59875 4.63854 9.36495 4.35796 9.0765 4.142C9.36486 3.92596 9.5986 3.64536 9.75897 3.32271C9.91934 3.00005 10.0019 2.64431 10 2.284C10 1.0265 9.016 0 7.7925 0H4.2075ZM2.8295 2.284C2.8295 1.4885 3.4505 0.8515 4.2075 0.8515H5.585V3.7165H4.2075C3.4505 3.7165 2.8295 3.079 2.8295 2.284ZM7.7925 3.716H6.415V0.851H7.7925C8.55 0.851 9.1705 1.4885 9.1705 2.284C9.1705 3.079 8.55 3.716 7.7925 3.716ZM2.83 6C2.83 5.205 3.451 4.5675 4.208 4.5675H5.5855V7.4325H4.2075C3.45 7.4325 2.8295 6.795 2.8295 6H2.83ZM6.415 6C6.415 5.205 7.036 4.5675 7.793 4.5675C8.5505 4.5675 9.171 5.2045 9.171 6C9.171 6.795 8.5505 7.4325 7.793 7.4325C7.036 7.4325 6.4155 6.7955 6.4155 6H6.415ZM2.83 9.716C2.83 8.921 3.451 8.284 4.208 8.284H5.5855V9.716C5.5855 10.5115 4.9655 11.1485 4.208 11.1485C3.451 11.1485 2.83 10.5115 2.83 9.716Z" fill="white"/>
</g>
</g>
<defs>
<clipPath id="clip0_1_39">
<rect width="12" height="12" fill="white"/>
</clipPath>
</defs>
</svg>
