<svg width="12" height="12" viewBox="0 0 12 12" fill="none" xmlns="http://www.w3.org/2000/svg">
<g clip-path="url(#clip0_1_108)">
<mask id="mask0_1_108" style="mask-type:luminance" maskUnits="userSpaceOnUse" x="0" y="0" width="12" height="12">
<path d="M0 0H12V12H0V0Z" fill="white"/>
</mask>
<g mask="url(#mask0_1_108)">
<path d="M2.53999 0H3.08099V0.5345H3.57599V0H4.11699V1.618H3.57599V1.0765H3.08099V1.618H2.54049V0H2.53999ZM4.82799 0.5365H4.35199V0H5.84549V0.5365H5.36899V1.618H4.82799V0.5365V0.5365ZM6.08249 0H6.64649L6.99349 0.5685L7.33999 0H7.90399V1.618H7.36549V0.816L6.99349 1.3915H6.98399L6.61149 0.8165V1.618H6.08249V0V0ZM8.17299 0H8.71449V1.0835H9.47449V1.6185H8.17299V0V0Z" fill="white"/>
<path fill-rule="evenodd" clip-rule="evenodd" d="M2.523 11.036L1.5 2.35851H10.5L9.4765 11.035L5.995 12L2.523 11.036ZM4.5915 6.28601L4.4945 5.19601H8.567L8.662 4.13201H3.332L3.619 7.35051H7.3075L7.184 8.73051L5.997 9.05151H5.996L4.811 8.7315L4.735 7.88301H3.666L3.815 9.55401L5.995 10.159L8.1785 9.55401L8.4445 6.57201L8.4705 6.28651H4.5915V6.28601Z" fill="white"/>
</g>
</g>
<defs>
<clipPath id="clip0_1_108">
<rect width="12" height="12" rx="5" fill="white"/>
</clipPath>
</defs>
</svg>
