<svg width="12" height="12" viewBox="0 0 12 12" fill="none" xmlns="http://www.w3.org/2000/svg">
<path d="M7.04025 7.38749C7.15659 7.62333 7.33711 7.82156 7.56105 7.9594C7.785 8.09725 8.04329 8.16911 8.30625 8.16674C8.838 8.16674 9.17775 7.90087 9.17775 7.53374C9.17775 7.09387 8.82863 6.93787 8.24363 6.68174L7.92263 6.54412C6.99675 6.14962 6.38138 5.65537 6.38138 4.61062C6.38138 3.64799 7.11488 2.91562 8.26088 2.91562C8.63282 2.88863 9.00447 2.97188 9.32935 3.15497C9.65424 3.33805 9.91794 3.61285 10.0875 3.94499L9.08813 4.58662C9.02269 4.42203 8.90872 4.28125 8.76136 4.18299C8.614 4.08472 8.44022 4.03363 8.26313 4.03649C8.18593 4.02873 8.10797 4.03713 8.03421 4.06117C7.96044 4.08521 7.8925 4.12436 7.8347 4.17612C7.77691 4.22788 7.73054 4.29111 7.69854 4.36179C7.66655 4.43247 7.64963 4.50904 7.64888 4.58662C7.64888 4.97174 7.88738 5.12737 8.43638 5.36587L8.75738 5.50312C9.84788 5.97074 10.4633 6.44737 10.4633 7.51912C10.4633 8.67449 9.55575 9.30749 8.33663 9.30749C7.86175 9.3377 7.38828 9.22985 6.97334 8.99696C6.5584 8.76407 6.2197 8.41609 5.99813 7.99499L7.04025 7.38749ZM2.50725 7.49999C2.709 7.85774 2.89238 8.15999 3.33225 8.15999C3.75375 8.15999 4.02 7.99499 4.02 7.35374V2.99062H5.30325V7.37174C5.30325 8.70037 4.524 9.30524 3.387 9.30524C2.98537 9.32699 2.58657 9.22664 2.24306 9.0174C1.89955 8.80816 1.62743 8.49984 1.4625 8.13299L2.50725 7.49999Z" fill="white"/>
</svg>
