<svg width="12" height="12" viewBox="0 0 12 12" fill="none" xmlns="http://www.w3.org/2000/svg">
<g clip-path="url(#clip0_1_158)">
<mask id="mask0_1_158" style="mask-type:luminance" maskUnits="userSpaceOnUse" x="0" y="0" width="12" height="12">
<path d="M0 0H12V12H0V0Z" fill="white"/>
</mask>
<g mask="url(#mask0_1_158)">
<path d="M12 5.8445C12 5.0495 11.0045 4.296 9.478 3.829C9.8305 2.2735 9.674 1.0355 8.984 0.639C8.81681 0.54536 8.62758 0.498226 8.436 0.5025V1.0475C8.5485 1.0475 8.639 1.07 8.715 1.1115C9.0475 1.3025 9.192 2.0285 9.0795 2.963C9.0525 3.193 9.0085 3.435 8.9545 3.682C8.44332 3.55882 7.92451 3.46979 7.4015 3.4155C7.08993 2.98564 6.75 2.57707 6.384 2.1925C7.1815 1.4515 7.93 1.0455 8.439 1.0455V0.5C7.766 0.5 6.8855 0.9795 5.995 1.811C5.105 0.985 4.224 0.51 3.5515 0.51V1.055C4.058 1.055 4.809 1.459 5.6065 2.195C5.264 2.555 4.9215 2.963 4.596 3.4155C4.07192 3.46919 3.55218 3.55907 3.0405 3.6845C2.98642 3.4504 2.94387 3.21378 2.913 2.9755C2.798 2.0405 2.94 1.3145 3.2705 1.1215C3.3435 1.0775 3.439 1.0575 3.5515 1.0575V0.5125C3.3465 0.5125 3.16 0.5565 2.999 0.649C2.3115 1.0455 2.1575 2.2805 2.512 3.8315C0.9905 4.3015 0 5.052 0 5.8445C0 6.6395 0.9955 7.393 2.522 7.8595C2.1695 9.4155 2.326 10.6535 3.016 11.0495C3.175 11.1425 3.361 11.1865 3.566 11.1865C4.239 11.1865 5.1195 10.707 6.01 9.8755C6.9 10.702 7.7805 11.1765 8.4535 11.1765C8.64655 11.1806 8.83722 11.1333 9.006 11.0395C9.6935 10.6435 9.8475 9.4085 9.493 7.8575C11.0095 7.3905 12 6.637 12 5.8445ZM8.815 4.213C8.71999 4.53993 8.60987 4.86227 8.485 5.179C8.28058 4.78138 8.05613 4.39438 7.8125 4.0195C8.16 4.071 8.495 4.1345 8.8155 4.213H8.815ZM7.695 6.818C7.51186 7.13773 7.31519 7.44951 7.1055 7.7525C6.37163 7.81718 5.63352 7.81802 4.8995 7.755C4.47847 7.15359 4.11027 6.51688 3.799 5.852C4.10979 5.18555 4.47643 4.5466 4.895 3.942C5.6287 3.87718 6.36663 3.87618 7.1005 3.939C7.3035 4.23 7.502 4.541 7.6925 4.869C7.8785 5.189 8.0475 5.514 8.2015 5.842C8.04579 6.17398 7.87682 6.49957 7.695 6.818ZM8.485 6.5C8.617 6.8275 8.73 7.1555 8.8225 7.4735C8.5025 7.552 8.1645 7.618 7.815 7.669C8.05762 7.29071 8.28123 6.90056 8.485 6.5ZM6.005 9.11C5.7775 8.875 5.55 8.6135 5.325 8.327C5.545 8.337 5.77 8.3445 5.9975 8.3445C6.2275 8.3445 6.455 8.3395 6.6775 8.327C6.4575 8.6135 6.23 8.875 6.005 9.11ZM4.185 7.669C3.84787 7.62015 3.51318 7.55575 3.182 7.476C3.2725 7.1605 3.385 6.835 3.512 6.51C3.6125 6.705 3.718 6.901 3.833 7.097C3.948 7.2925 4.065 7.4835 4.185 7.669ZM5.9925 2.579C6.22 2.814 6.4475 3.0755 6.6725 3.362C6.4525 3.352 6.2275 3.3445 6 3.3445C5.77 3.3445 5.5425 3.3495 5.32 3.362C5.54 3.0755 5.7675 2.814 5.9925 2.579ZM4.1825 4.02C3.93993 4.39747 3.71632 4.78678 3.5125 5.1865C3.38411 4.86773 3.27147 4.54284 3.175 4.213C3.495 4.137 3.833 4.071 4.1825 4.02ZM1.969 7.082C1.103 6.713 0.543 6.2285 0.543 5.8445C0.543 5.4605 1.103 4.9735 1.969 4.607C2.179 4.5165 2.409 4.4355 2.6465 4.36C2.786 4.839 2.9695 5.338 3.1965 5.8495C2.98218 6.33059 2.80093 6.82574 2.654 7.3315C2.42173 7.25958 2.19312 7.17631 1.969 7.082ZM3.285 10.577C2.9525 10.387 2.808 9.66 2.9205 8.726C2.9475 8.496 2.9915 8.2535 3.0455 8.0065C3.5245 8.124 4.048 8.2145 4.5985 8.2735C4.91009 8.70334 5.25001 9.11192 5.616 9.4965C4.8185 10.2375 4.07 10.6435 3.561 10.6435C3.46497 10.6445 3.37017 10.6219 3.285 10.5775V10.577ZM9.087 8.7135C9.202 9.648 9.06 10.3745 8.7295 10.5675C8.6565 10.6115 8.561 10.631 8.4485 10.631C7.942 10.631 7.191 10.2275 6.3935 9.491C6.75796 9.10803 7.0956 8.7004 7.404 8.271C7.92808 8.21731 8.44782 8.12743 8.9595 8.002C9.016 8.249 9.0595 8.486 9.087 8.7135ZM10.0285 7.082C9.8185 7.1725 9.5885 7.2535 9.351 7.329C9.20149 6.82066 9.01773 6.32302 8.801 5.8395C9.026 5.331 9.2065 4.8345 9.3435 4.3575C9.57651 4.42966 9.80594 4.51292 10.031 4.607C10.897 4.976 11.457 5.4605 11.457 5.8445C11.4545 6.2285 10.8945 6.7155 10.0285 7.082Z" fill="white"/>
<path d="M5.9975 6.9625C6.29401 6.9625 6.57838 6.84471 6.78805 6.63505C6.99771 6.42538 7.1155 6.14101 7.1155 5.8445C7.1155 5.54799 6.99771 5.26362 6.78805 5.05396C6.57838 4.84429 6.29401 4.7265 5.9975 4.7265C5.70099 4.7265 5.41662 4.84429 5.20696 5.05396C4.99729 5.26362 4.8795 5.54799 4.8795 5.8445C4.8795 6.14101 4.99729 6.42538 5.20696 6.63505C5.41662 6.84471 5.70099 6.9625 5.9975 6.9625Z" fill="white"/>
</g>
</g>
<defs>
<clipPath id="clip0_1_158">
<rect width="12" height="12" rx="5" fill="white"/>
</clipPath>
</defs>
</svg>
