<svg width='14' height='14' viewBox='0 0 24 24' xmlns='http://www.w3.org/2000/svg' xmlns:xlink='http://www.w3.org/1999/xlink'><rect width='14' height='14' stroke='none' fill='#FFF' opacity='0'/>


<g transform="matrix(0.97 0 0 0.97 12 12)" >
<path style="stroke: none; stroke-width: 1; stroke-dasharray: none; stroke-linecap: butt; stroke-dashoffset: 0; stroke-linejoin: miter; stroke-miterlimit: 4; fill: rgb(255,255,255); fill-rule: nonzero; opacity: 1;" transform=" translate(-12.73, -12)" d="M 10.490234 2 C 10.011234 2 9.6017656 2.3385938 9.5097656 2.8085938 L 9.1757812 4.5234375 C 8.3477813 4.8354375 7.5926406 5.2695 6.9316406 5.8125 L 5.2871094 5.2460938 C 4.8341094 5.0900938 4.3357031 5.2783594 4.0957031 5.6933594 L 2.5859375 8.3066406 C 2.3469375 8.7216406 2.4339219 9.2485 2.7949219 9.5625 L 4.1132812 10.708984 C 4.0362813 11.179984 4 11.602 4 12 C 4 12.395 4.0372812 12.817969 4.1132812 13.292969 L 2.7949219 14.439453 C 2.4339219 14.753453 2.3469375 15.280312 2.5859375 15.695312 L 4.0957031 18.308594 C 4.3347031 18.722594 4.8341094 18.909906 5.2871094 18.753906 L 6.9316406 18.1875 C 7.5946406 18.7315 8.3487813 19.166516 9.1757812 19.478516 C 9.1757812 19.478516 9.2236562 20.001953 9.4726562 21.001953 C 9.7206562 22.001953 10.515625 22.001953 10.515625 22.001953 L 10.945312 22.001953 L 12.626953 16.423828 C 12.881953 15.577828 13.659016 15 14.541016 15 L 21.814453 15 L 21.826172 14.978516 L 19.886719 13.291016 C 19.963719 12.820016 20 12.398 20 12 C 20 11.602 19.963719 11.179031 19.886719 10.707031 L 21.205078 9.5605469 C 21.566078 9.2465469 21.653062 8.7196875 21.414062 8.3046875 L 19.904297 5.6914062 C 19.665297 5.2774063 19.165891 5.0900938 18.712891 5.2460938 L 17.068359 5.8125 C 16.405359 5.2685 15.651219 4.8334844 14.824219 4.5214844 L 14.490234 2.8085938 C 14.399234 2.3385937 13.988766 2 13.509766 2 L 10.490234 2 z M 12 9 C 13.657 9 15 10.343 15 12 C 15 13.657 13.657 15 12 15 C 10.343 15 9 13.657 9 12 C 9 10.343 10.343 9 12 9 z M 14.345703 17 L 13 22 L 14.052734 22 L 14.310547 21 L 15.677734 21 L 15.9375 22 L 17 22 L 15.646484 17 L 14.345703 17 z M 18 17 L 18 22 L 19 22 L 19 20 L 19.5 20 C 20.328 20 21 19.328 21 18.5 C 21 17.672 20.328 17 19.5 17 L 18 17 z M 22 17 L 22 22 L 23 22 L 23 17 L 22 17 z M 19 18 L 19.5 18 C 19.776 18 20 18.224 20 18.5 C 20 18.776 19.776 19 19.5 19 L 19 19 L 19 18 z M 14.992188 18.353516 L 15.419922 20 L 14.568359 20 L 14.992188 18.353516 z" stroke-linecap="round" />
</g>
</svg>