<svg width="48" height="48" viewBox="0 0 48 48" fill="none" xmlns="http://www.w3.org/2000/svg">
<path d="M5 7.72175C5 6.21837 6.24925 5 7.79062 5H40.2094C41.7507 5 43 6.21837 43 7.72175V40.2783C43 41.7816 41.7507 43 40.2094 43H7.79062C6.24925 43 5 41.7816 5 40.2783V7.72175ZM16.7396 36.8108V19.6514H11.0373V36.8108H16.7396ZM13.8896 17.3073C15.8775 17.3073 17.1149 15.9915 17.1149 14.3433C17.0792 12.6594 15.8799 11.3793 13.9276 11.3793C11.9754 11.3793 10.7 12.6617 10.7 14.3433C10.7 15.9915 11.9374 17.3073 13.8516 17.3073H13.8896ZM25.5461 36.8108V27.2276C25.5461 26.7146 25.5841 26.2016 25.7361 25.8359C26.147 24.8123 27.0851 23.7506 28.6621 23.7506C30.726 23.7506 31.5501 25.3229 31.5501 27.6314V36.8108H37.2525V26.9688C37.2525 21.6962 34.4405 19.2453 30.688 19.2453C27.6623 19.2453 26.3061 20.9078 25.5461 22.0786V22.138H25.5081C25.5207 22.1182 25.5334 22.0984 25.5461 22.0786V19.6514H19.8461C19.9174 21.2616 19.8461 36.8108 19.8461 36.8108H25.5461Z" fill="#25282B"/>
</svg>
