<svg width="48" height="48" viewBox="0 0 48 48" fill="none" xmlns="http://www.w3.org/2000/svg">
<path fill-rule="evenodd" clip-rule="evenodd" d="M3.13125 12.1467C3.3959 10.9686 4.04647 9.91683 4.97642 9.16349C5.90637 8.41014 7.06057 7.99992 8.25 8H39.75C40.9394 7.99992 42.0936 8.41014 43.0236 9.16349C43.9535 9.91683 44.6041 10.9686 44.8687 12.1467L24 25.104L3.13125 12.1467ZM3 15.192V34.136L18.2329 24.648L3 15.192ZM20.7476 26.2133L3.50138 36.952C3.92748 37.8648 4.60001 38.6358 5.44068 39.1754C6.28135 39.715 7.25558 40.001 8.25 40H39.75C40.7443 40.0002 41.7181 39.7136 42.5583 39.1736C43.3985 38.6335 44.0705 37.8622 44.496 36.9493L27.2498 26.2107L24 28.2293L20.7476 26.2107V26.2133ZM29.7671 24.6507L45 34.136V15.192L29.7671 24.648V24.6507Z" fill="#25282B"/>
</svg>
